<svg version="1.1" id="Слой_1" xmlns="http://www.w3.org/2000/svg" x="0" y="0" viewBox="0 0 509.2 108.6" xml:space="preserve"><path d="M204 72.3h-3.2c-.2 0-.4-.2-.4-.4l5.5-35.2c.1-.4.6-.4.7-.1l12.5 27.6c.1.3.5.3.7 0l12.8-27.6c.2-.3.6-.3.7.1l5.2 35.2c0 .2-.1.4-.4.4H235c-.2 0-.3-.1-.4-.3l-3.1-22.7c0-.4-.5-.4-.7-.1l-11 23.8c-.1.3-.5.3-.7 0l-10.9-23.8c-.2-.3-.7-.3-.7.1L204.4 72c0 .2-.2.3-.4.3zm69.9-.2l-3.9-9.4c-.1-.1-.2-.2-.3-.2h-14.4c-.1 0-.3.1-.3.2l-4 9.4c-.1.1-.2.2-.3.2h-3.5c-.3 0-.4-.3-.3-.5l15.5-35.3c.1-.3.6-.3.7 0l15.1 35.3c.1.2-.1.5-.3.5h-3.5c-.3 0-.4-.1-.5-.2zm-16.8-13.3h10.7c.3 0 .4-.3.3-.5l-5.3-12.6c-.1-.3-.6-.3-.7 0l-5.4 12.6c0 .2.2.5.4.5zm48-.7v-2.9c0-.2.2-.4.4-.4h14.2v.8c0 4.3-1.1 8-3.3 11-3.1 4.2-7.4 6.3-13 6.3-5.2 0-9.5-1.7-12.9-5.2-3.5-3.5-5.2-7.8-5.2-12.8 0-5.1 1.7-9.4 5.2-12.8 3.5-3.5 7.8-5.2 13-5.2 4.1 0 7.7 1.2 10.7 3.5 1.4 1.1 2.7 2.4 3.8 3.9.1.2.1.4 0 .5l-2.3 2.1c-.2.1-.4.1-.5-.1-.9-1.3-2-2.4-3.1-3.3-2.4-2-5.2-2.9-8.5-2.9-4.2 0-7.6 1.4-10.3 4.1-2.7 2.8-4 6.2-4 10.3 0 3 .7 5.6 2.2 7.9 1.5 2.3 3.3 3.9 5.4 4.9 2.1 1 4.3 1.5 6.6 1.5s4.4-.5 6.3-1.6c1.9-1.1 3.4-2.5 4.4-4.3.8-1.4 1.3-2.9 1.4-4.6 0-.2-.2-.4-.4-.4h-9.6c-.3 0-.5-.1-.5-.3zm26-20.7h3.1c.2 0 .4.2.4.4V72c0 .2-.2.4-.4.4h-3.1c-.2 0-.4-.2-.4-.4V37.8c0-.2.2-.4.4-.4zm43.1 3.1v3.8c0 .3-.4.5-.6.3-1.2-1.1-2.5-2-3.9-2.6-2-.9-4-1.4-6-1.4-4 0-7.4 1.4-10 4.2-2.7 2.8-4 6.3-4 10.3 0 4.4 1.5 7.9 4.4 10.4 2.9 2.5 6.1 3.8 9.7 3.8 2.2 0 4.4-.5 6.5-1.6 1.2-.6 2.4-1.4 3.4-2.3.2-.2.6-.1.6.3v3.8c0 .1-.1.2-.2.3-3.1 2.2-6.6 3.3-10.4 3.3-5.2 0-9.5-1.7-12.9-5.2-3.4-3.5-5.2-7.7-5.2-12.8 0-5.2 1.7-9.5 5.2-13s7.8-5.2 13.1-5.2c3.8 0 7.2 1.1 10.2 3.3 0 0 .1.2.1.3zm43.8.6h-7.7c-.2 0-.4.2-.4.4V72c0 .2-.2.4-.4.4h-3.1c-.2 0-.4-.2-.4-.4V41.4c0-.2-.2-.4-.4-.4h-7.7c-.2 0-.4-.2-.4-.4v-2.9c0-.2.2-.4.4-.4H418c.2 0 .4.2.4.4v2.9c0 .3-.2.5-.4.5zm13.4-3.3v13.4c0 .2.2.4.4.4H449c.2 0 .4-.2.4-.4V37.8c0-.2.2-.4.4-.4h3.1c.2 0 .4.2.4.4V72c0 .2-.2.4-.4.4h-3.1c-.2 0-.4-.2-.4-.4V55.6c0-.2-.2-.4-.4-.4h-17.2c-.2 0-.4.2-.4.4v16.3c0 .2-.2.4-.4.4h-3.1c-.2 0-.4-.2-.4-.4V37.8c0-.2.2-.4.4-.4h3.1c.3 0 .4.2.4.4zm57.9 34.3l-3.9-9.4c-.1-.1-.2-.2-.3-.2h-14.4c-.1 0-.3.1-.3.2l-4 9.4c-.1.1-.2.2-.3.2h-3.5c-.3 0-.4-.3-.3-.5l15.5-35.3c.1-.3.6-.3.7 0l15.1 35.3c.1.2-.1.5-.3.5h-3.5c-.3 0-.4-.1-.5-.2zm-16.7-13.3h10.7c.3 0 .4-.3.3-.5l-5.3-12.6c-.1-.3-.6-.3-.7 0l-5.4 12.6c-.1.2.1.5.4.5zm30.3-21.4h3.1c.2 0 .4.2.4.4V72c0 .2-.2.4-.4.4h-3.1c-.2 0-.4-.2-.4-.4V37.8c.1-.2.2-.4.4-.4z" fill="#3d3e3e"/><path d="M209.7 96.4v1.9c0 .1-.1.1-.2.1-.9-.8-2-1.2-3.1-1.2-1.3 0-2.4.4-3.2 1.3-.8.9-1.2 2-1.2 3.3 0 1.3.4 2.4 1.2 3.2.8.9 1.9 1.3 3.2 1.3 1.1 0 2.1-.4 3.1-1.2.1-.1.2 0 .2.1v1.9s0 .1-.1.1c-1 .6-2.1.9-3.3.9-1.7 0-3.1-.6-4.3-1.7-1.3-1.2-1.9-2.7-1.9-4.6 0-1.9.6-3.5 1.9-4.7 1.1-1 2.6-1.6 4.4-1.6 1.3-.1 2.4.2 3.3.9 0-.1 0-.1 0 0zm3.5.8c1.2-1.2 2.7-1.8 4.5-1.8 1.8 0 3.3.6 4.5 1.8 1.2 1.2 1.8 2.7 1.8 4.5 0 1.8-.6 3.3-1.8 4.5-1.2 1.2-2.7 1.8-4.5 1.8-1.8 0-3.3-.6-4.5-1.8-1.2-1.2-1.8-2.7-1.8-4.5.1-1.8.6-3.3 1.8-4.5zm1.3 7.8c.8.9 1.9 1.3 3.2 1.3 1.3 0 2.4-.4 3.2-1.3.8-.9 1.2-1.9 1.2-3.3s-.4-2.4-1.2-3.3c-.8-.9-1.9-1.3-3.2-1.3-1.3 0-2.4.4-3.2 1.3-.8.9-1.2 1.9-1.2 3.3s.4 2.4 1.2 3.3zm18.4-7.5l-1.3.8h-.2c-.1-.2-.3-.5-.5-.7-.4-.3-.8-.4-1.3-.4s-1 .1-1.3.4c-.3.3-.4.6-.4 1 0 .6.4 1.1 1.3 1.5l1.2.5c1.9.8 2.8 2 2.8 3.5 0 1.1-.4 2.1-1.1 2.8-.7.7-1.7 1.1-2.8 1.1-1.2 0-2.1-.4-2.8-1.2-.6-.6-.9-1.4-1-2.2 0-.1 0-.1.1-.1l1.6-.3c.1 0 .1 0 .1.1 0 .5.2 1 .5 1.4.4.5.9.7 1.6.7.6 0 1-.2 1.4-.6.4-.4.6-.9.6-1.5s-.2-1-.5-1.3c-.3-.3-.7-.6-1.3-.8l-1.2-.5c-1.6-.7-2.5-1.7-2.5-3.1 0-.9.3-1.6 1-2.2.6-.6 1.5-.9 2.6-.9 1 0 1.8.3 2.4.8.3.3.6.7.9 1.1.2 0 .2.1.1.1zm4.2 10.2h-1.7c-.1 0-.1-.1-.1-.1l2.4-12.5c0-.1.2-.1.2 0l4 8.8c0 .1.2.1.2 0l4-8.8c0-.1.2-.1.2 0l2.2 12.5c0 .1 0 .1-.1.1h-1.7c-.1 0-.1 0-.1-.1l-1.2-6.8c0-.1-.2-.1-.2 0l-3.3 7.3c0 .1-.2.1-.2 0l-3.2-7.3c0-.1-.2-.1-.2 0l-1.2 6.9c.1 0 .1 0 0 0zm20.7-11.9v1.5c0 .1-.1.1-.1.1h-4.6c-.1 0-.1.1-.1.1v2.7c0 .1.1.1.1.1h4.4c.1 0 .1.1.1.1v1.5c0 .1-.1.1-.1.1h-4.4c-.1 0-.1.1-.1.1v3.8c0 .1.1.1.1.1h4.6c.1 0 .1.1.1.1v1.5c0 .1-.1.1-.1.1h-6.4c-.1 0-.1-.1-.1-.1V95.8c0-.1.1-.1.1-.1h6.4c0-.1.1 0 .1.1zm8.4 1.6h-2.6c-.1 0-.1 0-.1.1v10.1c0 .1 0 .1-.1.1h-1.6c-.1 0-.1 0-.1-.1V97.5c0-.1 0-.1-.1-.1H259c-.1 0-.1 0-.1-.1v-1.5c0-.1 0-.1.1-.1h7.2c.1 0 .1 0 .1.1v1.5l-.1.1zm1.8-1.8h1.6c.1 0 .1 0 .1.1v11.9c0 .1 0 .1-.1.1H268c-.1 0-.1 0-.1-.1V95.8c0-.1.1-.2.1-.2zm13.6.8v1.9c0 .1-.1.1-.2.1-.9-.8-2-1.2-3.1-1.2-1.3 0-2.4.4-3.2 1.3-.8.9-1.2 2-1.2 3.3 0 1.3.4 2.4 1.2 3.2.8.9 1.9 1.3 3.2 1.3 1.1 0 2.2-.4 3.1-1.2.1-.1.2 0 .2.1v1.9s0 .1-.1.1c-1 .6-2.1.9-3.3.9-1.7 0-3.1-.6-4.3-1.7-1.3-1.2-1.9-2.7-1.9-4.6 0-1.9.6-3.5 1.9-4.7 1.1-1 2.6-1.6 4.4-1.6 1.3-.1 2.4.2 3.3.9 0-.1 0-.1 0 0zm8.9 1.1l-1.3.7c-.1 0-.1 0-.2-.1-.1-.2-.3-.5-.5-.6-.4-.3-.8-.4-1.3-.4s-1 .1-1.3.4c-.3.3-.4.6-.4 1 0 .6.4 1.1 1.3 1.5l1.2.5c1.9.8 2.8 2 2.8 3.5 0 1.1-.4 2.1-1.1 2.8-.7.7-1.7 1.1-2.8 1.1-1.2 0-2.1-.4-2.8-1.2-.6-.6-.9-1.4-1-2.2 0-.1 0-.1.1-.1l1.6-.3c.1 0 .1 0 .1.1 0 .5.2 1 .5 1.4.4.5.9.7 1.6.7.6 0 1-.2 1.4-.6.4-.4.6-.9.6-1.5s-.2-1-.5-1.3c-.3-.3-.7-.6-1.3-.8l-1.2-.5c-1.6-.7-2.5-1.7-2.5-3.1 0-.9.3-1.6 1-2.2.6-.6 1.5-.9 2.6-.9 1 0 1.8.3 2.4.8.3.3.6.7.9 1.1.2.1.1.2.1.2zm13-1.7v1.5c0 .1 0 .1-.1.1h-4c-.1 0-.1 0-.1.1v2.7c0 .1 0 .1.1.1h3.8c.1 0 .1 0 .1.1v1.5c0 .1 0 .1-.1.1h-3.8c-.1 0-.1 0-.1.1v5.5c0 .1 0 .1-.1.1h-1.6c-.1 0-.1 0-.1-.1V95.8c0-.1 0-.1.1-.1h5.8c0-.1.1 0 .1.1zm2.1 0c0-.1 0-.1.1-.1h2c1.4 0 2.5.2 3.2.7 1 .6 1.4 1.6 1.4 2.8 0 .9-.2 1.6-.7 2.2-.5.6-1.1.9-1.8 1.1-.1 0-.1.1-.1.2l3.5 4.9c.1.1 0 .2-.1.2H311l-3.4-4.9h-.3v4.8c0 .1 0 .1-.1.1h-1.6c-.1 0-.1 0-.1-.1V95.8zm1.8 1.6v3.8h1.1c.2 0 .4-.1.6-.1.3-.1.5-.2.7-.3.2-.1.4-.3.5-.6.2-.3.2-.6.2-.9 0-1.2-.8-1.9-2.5-1.9h-.6zm9.1-.2c1.2-1.2 2.7-1.8 4.5-1.8 1.8 0 3.3.6 4.5 1.8 1.2 1.2 1.8 2.7 1.8 4.5 0 1.8-.6 3.3-1.8 4.5-1.2 1.2-2.7 1.8-4.5 1.8-1.8 0-3.3-.6-4.5-1.8-1.2-1.2-1.8-2.7-1.8-4.5 0-1.8.6-3.3 1.8-4.5zm1.3 7.8c.8.9 1.9 1.3 3.2 1.3 1.3 0 2.4-.4 3.2-1.3.8-.9 1.2-1.9 1.2-3.3s-.4-2.4-1.2-3.3c-.8-.9-1.9-1.3-3.2-1.3-1.3 0-2.4.4-3.2 1.3-.8.9-1.2 1.9-1.2 3.3s.4 2.4 1.2 3.3zm12.8 2.7H329c-.1 0-.1-.1-.1-.1l2.4-12.5c0-.1.2-.1.2 0l4 8.8c0 .1.2.1.2 0l4-8.8c0-.1.2-.1.2 0l2.2 12.5c0 .1 0 .1-.1.1h-1.7c-.1 0-.1 0-.1-.1l-1.2-6.8c0-.1-.2-.1-.2 0l-3.3 7.3c0 .1-.2.1-.2 0l-3.2-7.3c0-.1-.2-.1-.2 0l-1.2 6.9h-.1zm24.3-10.3h-2.5c-.1 0-.1.1-.1.1v10.1c0 .1-.1.1-.1.1h-1.6c-.1 0-.1-.1-.1-.1V97.5c0-.1-.1-.1-.1-.1h-2.5c-.1 0-.1-.1-.1-.1v-1.5c0-.1.1-.1.1-.1h7.2c.1 0 .1.1.1.1v1.5c-.2 0-.3.1-.3.1zm3.6-1.6v4.5c0 .1 0 .1.1.1h5c.1 0 .1 0 .1-.1v-4.5c0-.1 0-.1.1-.1h1.6c.1 0 .1 0 .1.1v11.9c0 .1 0 .1-.1.1h-1.6c-.1 0-.1 0-.1-.1v-5.4c0-.1 0-.1-.1-.1h-5c-.1 0-.1 0-.1.1v5.4c0 .1 0 .1-.1.1h-1.6c-.1 0-.1 0-.1-.1V95.8c0-.1 0-.1.1-.1h1.6c0-.1.1 0 .1.1zm18.2 11.9l-1.2-2.8-.1-.1h-5s-.1 0-.1.1l-1.3 2.8-.1.1h-1.7c-.1 0-.1-.1-.1-.2l5.8-12.4c0-.1.2-.1.2 0l5.6 12.4c0 .1 0 .2-.1.2h-1.8c0-.1-.1-.1-.1-.1zm-5.4-4.6h3.3c.1 0 .1-.1.1-.2l-1.6-3.7c0-.1-.2-.1-.2 0l-1.7 3.7c-.1.1 0 .2.1.2zm9.1-7.5h1.6c.1 0 .1 0 .1.1v11.9c0 .1 0 .1-.1.1h-1.6c-.1 0-.1 0-.1-.1V95.8c0-.1 0-.2.1-.2zm4.7 0h1.6c.1 0 .1.1.1.1v10.1c0 .1.1.1.1.1h3.3c.1 0 .1.1.1.1v1.5c0 .1-.1.1-.1.1H385c-.1 0-.1-.1-.1-.1V95.8l.2-.2zm15.4 12.1l-1.2-2.8-.1-.1h-5s-.1 0-.1.1l-1.3 2.8-.1.1H391c-.1 0-.1-.1-.1-.2l5.8-12.4c0-.1.2-.1.2 0l5.6 12.4c0 .1 0 .2-.1.2h-1.7l-.2-.1zm-5.5-4.6h3.3c.1 0 .1-.1.1-.2l-1.6-3.7c0-.1-.2-.1-.2 0l-1.7 3.7c0 .1 0 .2.1.2zm10.8 4.6h-1.6c-.1 0-.1 0-.1-.1V95.1c0-.1.1-.1.2-.1l8.4 8.8c.1.1.2 0 .2-.1v-8c0-.1 0-.1.1-.1h1.6c.1 0 .1 0 .1.1v12.4c0 .1-.1.1-.2.1l-8.4-8.8c-.1-.1-.2 0-.2.1v8.1c0 .1-.1.1-.1.1zm11.7-11.9c0-.1 0-.1.1-.1h2.4c1 0 1.8.1 2.5.2.7.2 1.4.5 2 .9.7.6 1.3 1.3 1.7 2.1.4.8.6 1.8.6 2.8 0 2.1-.8 3.7-2.4 4.9-.7.5-1.3.8-2 .9-.7.2-1.5.2-2.4.2h-2.4c-.1 0-.1 0-.1-.1V95.8zm1.9 1.6v8.6h.8c1.4 0 2.4-.3 3.2-.9 1.1-.8 1.6-2 1.6-3.4 0-.7-.2-1.4-.5-2-.3-.6-.7-1.1-1.2-1.4-.8-.6-1.8-.8-3.2-.8h-.7z" fill="#5d5d5d"/><linearGradient id="SVGID_1_" gradientUnits="userSpaceOnUse" x1="14.175" y1="-16036.872" x2="149.521" y2="-15958.73" gradientTransform="matrix(1 0 0 -1 0 -15924.333)"><stop offset="0" stop-color="#edbba9"/><stop offset=".094" stop-color="#ddb6b1"/><stop offset=".325" stop-color="#b9abc1"/><stop offset=".355" stop-color="#beaec2"/><stop offset=".497" stop-color="#d4b9c8"/><stop offset=".647" stop-color="#e4c2cc"/><stop offset=".808" stop-color="#edc7cf"/><stop offset="1" stop-color="#f0c9d0"/></linearGradient><path d="M163.8 74.1c0-.2-.4-.9-.3-1.2.2-4.1-.7-5 .2-9.3.3-1.6-2.5-4.1-1.9-7.8.3-2.1-7.3 2.4-8 3.9 1.9 7 4.8 6.9 1.9 11.9-1 2.1-.4 2.4-.4 2.6-.5 1.4-.5 3.2-2 5.7-.6 1-1.5 3.7-2.8 5.6-1.3 1.9-3.6 4.9-4.3 5.7-1.3 2.2-5.8 1.2-7.8 2.8-2.5 0-3.2-2.5-4.3-3.2-1-.7-2.3-1.6-2.4-2.8-.3-4-1.3-3.3-1.7-5.1-1-5.2-1.5-9.4-1.5-12.7.2-1.8.1-4.5-.2-8.1-.3-3.6-.5-6.3-.5-8v-.5c-.6-2.3-.8-6-.5-10.9.2-1.7.2-2.9.1-3.8-.1-.8-.2-2.7-.4-5.8-.2-3.1-.4-5.4-.7-7v-.5c0-2-.6-4.7-1.8-8-.6-1.9-3-5.6-7.1-11.4 0-.2-.1-.2-.2-.2-6.1-4.3-11.8-6.1-17.1-5.4-1 .2-2.5.4-4.4.7-1.9.3-3.2.6-4.1.7-1 0-2.3.4-4 1.2-3.8 1.7-7.2 4-10.2 7-.2.2-2.4 2.8-3 7.5-.1 1-1.2 2.5-1.2 3.5-.1 2.1-1 6.3-1 8.5.1 7.2.6 13.6 1.7 17.1l-1.5-2.3c-2.1-3-4.3-5-6.7-5.9-.8-.6-3.8-1.5-9-2.8-.3-.2-.9-.2-1.7 0-4.6 1-11.6-2.5-16.1.2-2.4.2-7.5 3.2-14 4.4-4.2.7-8.2 3.4-10.4 5.6-1.7 2.1-12.7 10.9-12.8 14 0 .7 7.7-3.9 6.3-1-1.6 3.2-2.9 7.9-2.9 7.9 0 1.4.1 2.2.2 2.5.6.8.8 2.4.8 4.7v9.8c0 1.5-.2 2.6-.6 3.3-.3 1-.5 3.4-.5 3.5.7 4.4 1.2 6.6 1.3 6.8.6 2.4 1.3 4.1 1.9 5l2.2 1c2.7.3 4.6.5 5.7.5 1.4 0 5.4-.8 7.8.4 0 .2.5.6 1.5 1.2 2.7-3.5 5-5.4 7.1-5.9.9-1.9 1.2-4.1 1.1-6.7 0-.2-.1-.9-.3-2.4-.2-1.4-.6-2.4-.3-3.2 0-.3-.1-1.2-.2-2.7-.3-3-2.1-4.7-1.6-6.1 1-3.5.9-5.6 1-6.1 1-2.7 1.5-6.3 2-7.1.3-.5 1.7-3.1 2.2-4.4.5-1.3.5-3.6.9-4.1.6-.8-1-.7.9-2.8 2.1-2.3 3.5-1.7 4.9-2.2 1.9-.7 4.4-.6 7.2.1 1.7 1.8 3 4.7 3 4.7-.2 3.1.2 6.8 1 10.9.3 2.5.2 4.3-.2 5.4-.2.5-.2 1.5-.2 3 .2 2.2.1 4.6.7 7.3.3 1.8.2 3.3-.5 4.7.2.2.4.5.7 1.1.3.6.6 1.1.8 1.6.2.5.4 1 .6 1.6 0 .2 0 .5.1 1.1.1.6.2.9.4 1.1.2.2.9.8 2.3 1.9-.2.3-.3.7-.5 1.1-.2.4-.2.7-.2.9.2.3.3.8.5 1.3.2.6.3 1 .5 1.3 1.5.2 2.2.3 2.2.5 1.4.3 2.3.5 2.7.5.4 0 1.2-.2 2.4-.5s2.1-.5 2.7-.5c.3-.5.7-.8 1.1-1 .4-.2.8-.2 1.1-.2H74c1.3 0 2.7-.1 4.4-.2.2-.2.5-.3 1-.5s.9-.2 1-.2c.2 0 .5.1 1 .4.5.2.9.2 1.2-.1.3-1.7.5-2.6.6-2.8.1-.2.7-.9 1.9-2.2v-3.3c.2-.6.2-1.7 0-3.1-.2-1.4-.2-2.4 0-2.8V75c-.3-.8-.6-2.7-.7-5.7v-2.4c-.2-.6-.3-1.3-.5-2.2-.2-.9-.3-1.5-.3-1.8-.5-2.7-.6-4.2-.5-4.5.2-.3.2-1 0-2.1s-.2-1.7-.2-1.9c0-4.4-.1-7.7-.2-9.9-.2-2.8-.5-6-1-9.4 0-1-.2-2.5-.6-4.5-.4-2.1.6-3.6.6-4 .8-3.3.1-4.4.7-5.2.8-.8 1.7-3.2 2.3-4 1-2.3 2.7-3.6 5.7-4.4 1.3-.8 2.9-1 4.4-.7 1.6 1 3.4 1.5 3.9 4.3.6 4 .6 4.8.5 5.9 0 .6.1 1.2.2 1.7.7.6 1 2.2.7 5-.2 2.8-.3 4.4-.1 4.9-.6 1-.8 3.2-.8 6.5 0 1.3-.9 5.1-1.3 11.9L97 62.8c1.4 3 3.3-6.7 3.5-7.4.2-.8 1-.1 1.2-.3.2 3.9 0 1.2 0 1.3 0 1 .1 2.5.4 4.5.2 2.1.4 3.7.4 4.8-.2 2.5.6 7.1 2.2 13.7.9 3.6 2.7 8 5.6 13.2.8 1.5 1.2 2.3 1.2 2.4.2.2.1 1.3-.2 3.3 1.6 4.4 4.9 7.2 9.9 8.3 1.5.3 2.5.6 3.1.7 3.6.6 6.7.6 9.2 0 .6-.2 3.7-1.2 9.2-3.1.3 0 .8-.2 1.5-.7.2-.2.5-.5 1-.9s.9.4 1.4.2c1.3-1 2.2-.6 3.5-2.2 1.2-1.6 2-1.5 2.5-2.5.6-1 1.7-1.5 2.7-3.6.2-.5 1.7-2.5 2.2-3.7.5-1.2 2.8-3.8 3.2-4.7.4-.9 1.3-3.5 2-4.2 2.7-3.7.8-5 1.1-7.8zm-46.1-43.2c-.8 0-1.4-.7-1.4-1.6 0-.9.6-1.6 1.4-1.6.8 0 1.4.7 1.4 1.6 0 .9-.6 1.6-1.4 1.6z" fill="url(#SVGID_1_)"/></svg>