<svg version="1.1" id="Слой_1" xmlns="http://www.w3.org/2000/svg" x="0" y="0" viewBox="0 0 329 323" xml:space="preserve"><path d="M18.7 286.7h-3.3c-.2 0-.3-.2-.3-.3l5.6-35.3c0-.3.4-.3.6-.1l12.6 27.8c.1.2.4.2.5 0L47.2 251c.1-.3.5-.2.6.1l5.2 35.3c0 .2-.1.3-.3.3h-3.4c-.1 0-.3-.1-.3-.3l-3-22.8c0-.3-.4-.4-.6-.1l-11.1 24.1c-.1.2-.4.2-.5 0l-11-24.1c-.1-.3-.5-.2-.6.1L19 286.5c0 .1-.2.2-.3.2zm69.4-.1l-3.9-9.4c0-.1-.2-.2-.3-.2H69.5c-.1 0-.2.1-.3.2l-4 9.4c0 .1-.2.2-.3.2h-3.6c-.2 0-.4-.2-.3-.4L76.6 251c.1-.2.5-.2.6 0l15.1 35.3c.1.2-.1.4-.3.4h-3.6c-.2 0-.3 0-.3-.1zm-16.8-13.3h10.8c.2 0 .4-.2.3-.4L77 260.1c-.1-.2-.5-.2-.6 0L71 272.9c-.1.2.1.4.3.4zm47.8-.6v-3c0-.2.1-.3.3-.3h14.2v.8c0 4.3-1.1 8-3.3 11-3.1 4.2-7.4 6.2-12.9 6.2-5.1 0-9.4-1.7-12.8-5.2-3.4-3.4-5.1-7.7-5.1-12.8s1.7-9.3 5.2-12.8c3.4-3.4 7.8-5.2 12.9-5.2 4.1 0 7.6 1.1 10.6 3.4 1.5 1.1 2.7 2.4 3.8 3.9.1.1.1.3 0 .4l-2.4 2.2c-.1.1-.3.1-.4 0-1-1.3-2-2.4-3.1-3.3-2.4-1.9-5.2-2.9-8.4-2.9-4.1 0-7.5 1.4-10.2 4.1-2.7 2.7-4 6.2-4 10.2 0 3 .7 5.6 2.2 7.8 1.5 2.2 3.2 3.9 5.3 4.9 2.1 1 4.3 1.5 6.6 1.5s4.4-.5 6.3-1.6c1.9-1.1 3.3-2.5 4.3-4.2.8-1.4 1.3-2.9 1.4-4.6 0-.2-.1-.3-.3-.3h-9.7c-.4.1-.5-.1-.5-.2zm25.7-20.6h3.2c.2 0 .3.1.3.3v34.1c0 .2-.1.3-.3.3h-3.2c-.2 0-.3-.1-.3-.3v-34.1c0-.2.2-.3.3-.3zm42.9 3v3.9c0 .3-.3.4-.5.2-1.2-1.2-2.6-2.1-4-2.7-2-.9-4-1.4-6-1.4-4 0-7.3 1.4-10 4.2-2.7 2.8-4 6.2-4 10.3 0 4.4 1.4 7.8 4.3 10.3s6.1 3.8 9.6 3.8c2.2 0 4.4-.5 6.4-1.6 1.3-.6 2.4-1.4 3.5-2.4.2-.2.5-.1.5.2v3.9c0 .1-.1.2-.1.3-3.1 2.2-6.6 3.3-10.3 3.3-5.1 0-9.4-1.7-12.8-5.1-3.4-3.4-5.1-7.7-5.1-12.7 0-5.2 1.7-9.5 5.2-12.9 3.4-3.4 7.8-5.1 13-5.1 3.8 0 7.1 1.1 10.1 3.3.2 0 .2.1.2.2zm43.7.6h-7.8c-.2 0-.3.1-.3.3v30.5c0 .2-.1.3-.3.3h-3.3c-.2 0-.3-.1-.3-.3V256c0-.2-.1-.3-.3-.3h-7.8c-.2 0-.3-.1-.3-.3v-3c0-.2.1-.3.3-.3h20.1c.2 0 .3.1.3.3v3c0 .2-.2.3-.3.3zm13.2-3.3v13.5c0 .2.1.3.3.3h17.2c.2 0 .3-.1.3-.3v-13.5c0-.2.1-.3.3-.3h3.2c.2 0 .3.1.3.3v34.1c0 .2-.1.3-.3.3h-3.2c-.2 0-.3-.1-.3-.3v-16.3c0-.2-.1-.3-.3-.3h-17.2c-.2 0-.3.1-.3.3v16.3c0 .2-.1.3-.3.3h-3.2c-.2 0-.3-.1-.3-.3v-34.1c0-.2.1-.3.3-.3h3.2c.2 0 .3.1.3.3zm57.6 34.2l-3.9-9.4c0-.1-.2-.2-.3-.2h-14.4c-.1 0-.2.1-.3.2l-4 9.4c0 .1-.2.2-.3.2h-3.6c-.2 0-.4-.2-.3-.4l15.5-35.3c.1-.2.5-.2.6 0l15.1 35.3c.1.2-.1.4-.3.4h-3.6c0-.1-.1-.1-.2-.2zm-16.8-13.3h10.8c.2 0 .4-.2.3-.4l-5.4-12.8c-.1-.2-.5-.2-.6 0l-5.5 12.8c.1.2.2.4.4.4zm30.2-21.2h3.3c.2 0 .3.1.3.3v34.1c0 .2-.1.3-.3.3h-3.3c-.2 0-.3-.1-.3-.3v-34.1c0-.2.2-.3.3-.3z" fill="#3d3e3e"/><path d="M64.5 311.3s0 .1 0 0l.1 2.2c-1-.9-2.1-1.3-3.3-1.3-1.3 0-2.3.4-3.2 1.3-.8.9-1.2 2-1.2 3.3 0 1.3.4 2.4 1.2 3.2.8.9 1.9 1.3 3.1 1.3 1.2 0 2.3-.5 3.2-1.4v2.1s0 .1-.1.1c-1 .6-2.1.9-3.2.9-1.7 0-3.1-.6-4.2-1.7-1.3-1.2-1.9-2.7-1.9-4.5 0-1.9.6-3.5 1.9-4.7 1.1-1 2.5-1.6 4.3-1.6 1.3 0 2.4.3 3.3.8zm3.5 1c1.2-1.2 2.7-1.8 4.5-1.8 1.8 0 3.3.6 4.5 1.8 1.2 1.2 1.8 2.7 1.8 4.4 0 1.8-.6 3.3-1.8 4.4-1.2 1.2-2.7 1.8-4.5 1.8-1.8 0-3.3-.6-4.5-1.8-1.2-1.2-1.8-2.7-1.8-4.4 0-1.8.6-3.2 1.8-4.4zm1.3 7.7c.8.8 1.9 1.3 3.2 1.3 1.3 0 2.3-.4 3.2-1.3.8-.8 1.2-1.9 1.2-3.3s-.4-2.4-1.2-3.3-1.9-1.3-3.2-1.3c-1.3 0-2.3.4-3.2 1.3-.8.8-1.2 1.9-1.2 3.3s.3 2.4 1.2 3.3zm18.4-7.5l-1.5.9c-.1-.3-.3-.5-.5-.8-.4-.3-.8-.4-1.3-.4s-1 .1-1.3.4c-.3.3-.4.6-.4 1 0 .6.4 1.1 1.3 1.5l1.2.5c1.9.8 2.8 1.9 2.8 3.5 0 1.1-.4 2.1-1.1 2.8-.7.7-1.7 1.1-2.8 1.1-1.2 0-2.1-.4-2.8-1.2-.6-.6-.9-1.4-1-2.2 0-.1 0-.1.1-.1l1.6-.5c.1 0 .1 0 .1.1 0 .5.2 1 .5 1.4.4.5.9.7 1.6.7.6 0 1-.2 1.4-.6.4-.4.6-.9.6-1.5s-.2-1-.5-1.3c-.3-.3-.7-.6-1.3-.8l-1.2-.5c-1.6-.7-2.4-1.7-2.4-3 0-.9.3-1.6.9-2.2.6-.6 1.5-.9 2.6-.9 1 0 1.8.3 2.4.8.4.4.7.8 1 1.3zm4 10.2H90c-.1 0-.1-.1-.1-.1l2.4-12.5c0-.1.1-.1.2 0l4 8.8c0 .1.1.1.2 0l4-8.8c0-.1.2-.1.2 0l2.2 12.5c0 .1 0 .1-.1.1h-1.7s-.1 0-.1-.1l-1.2-6.8c0-.1-.1-.1-.2 0l-3.3 7.3c0 .1-.1.1-.2 0l-3.2-7.3c0-.1-.2-.1-.2 0l-1.2 6.9c.1 0 .1 0 0 0zm20.5-11.9v1.5c0 .1 0 .1-.1.1h-4.6c-.1 0-.1 0-.1.1v2.7c0 .1 0 .1.1.1h4.4c.1 0 .1 0 .1.1v1.5c0 .1 0 .1-.1.1h-4.4c-.1 0-.1 0-.1.1v3.8c0 .1 0 .1.1.1h4.6c.1 0 .1 0 .1.1v1.5c0 .1 0 .1-.1.1h-6.4c-.1 0-.1 0-.1-.1v-11.8c0-.1 0-.1.1-.1l6.5.1c0-.1 0-.1 0 0zm8.4 1.6H118c-.1 0-.1 0-.1.1v10.1c0 .1 0 .1-.1.1h-1.6c-.1 0-.1 0-.1-.1v-10.1c0-.1 0-.1-.1-.1h-2.6c-.1 0-.1 0-.1-.1v-1.5c0-.1 0-.1.1-.1h7.1c.1 0 .1 0 .1.1v1.5c.1.1.1.1 0 .1zm1.8-1.7h1.6c.1 0 .1 0 .1.1v11.8c0 .1 0 .1-.1.1h-1.6c-.1 0-.1 0-.1-.1v-11.8c0-.1.1-.1.1-.1zm13.5.6s0 .1 0 0v2.2c-1-.9-2.1-1.3-3.3-1.3-1.3 0-2.3.4-3.2 1.3-.8.9-1.2 2-1.2 3.3 0 1.3.4 2.4 1.2 3.2.8.9 1.9 1.3 3.1 1.3 1.2 0 2.3-.5 3.2-1.4v2.1s0 .1-.1.1c-1 .6-2.1.9-3.2.9-1.7 0-3.1-.6-4.2-1.7-1.3-1.2-1.9-2.7-1.9-4.5 0-1.9.6-3.5 1.9-4.7 1.1-1 2.5-1.6 4.3-1.6 1.4 0 2.5.3 3.4.8zm9 1.2l-1.5.9c-.1-.3-.3-.5-.5-.8-.4-.3-.8-.4-1.3-.4s-1 .1-1.3.4c-.3.3-.4.6-.4 1 0 .6.4 1.1 1.3 1.5l1.2.5c1.9.8 2.8 1.9 2.8 3.5 0 1.1-.4 2.1-1.1 2.8-.7.7-1.7 1.1-2.8 1.1-1.2 0-2.1-.4-2.8-1.2-.6-.6-.9-1.4-1-2.2 0-.1 0-.1.1-.1l1.6-.4c.1 0 .1 0 .1.1 0 .5.2 1 .5 1.4.4.5.9.7 1.6.7.6 0 1-.2 1.4-.6.4-.4.6-.9.6-1.5s-.2-1-.5-1.3c-.3-.3-.7-.6-1.3-.8l-1.2-.5c-1.6-.7-2.4-1.7-2.4-3 0-.9.3-1.6.9-2.2.6-.6 1.5-.9 2.6-.9 1 0 1.8.3 2.4.8.4.3.7.7 1 1.2zm12.8-1.7v1.5c0 .1 0 .1-.1.1h-4c-.1 0-.1 0-.1.1v2.7c0 .1 0 .1.1.1h3.8c.1 0 .1 0 .1.1v1.5c0 .1 0 .1-.1.1h-3.8c-.1 0-.1 0-.1.1v5.5c0 .1 0 .1-.1.1h-1.6c-.1 0-.1 0-.1-.1v-11.8c0-.1 0-.1.1-.1l5.9.1c-.1-.1 0-.1 0 0zm2.1 0c0-.1 0-.1 0 0l2.1-.1c1.4 0 2.5.2 3.2.7.9.6 1.4 1.6 1.4 2.8 0 .9-.2 1.6-.7 2.2-.5.6-1.1.9-1.8 1.1-.1 0-.1.1-.1.1l3.6 4.9c0 .1 0 .2-.1.2h-2.1l-3.4-4.9h-.3v4.8c0 .1 0 .1-.1.1h-1.6c-.1 0-.1 0-.1-.1v-11.8zm1.8 1.6v3.8h1.1c.2 0 .4-.1.6-.1s.5-.2.7-.3.4-.3.5-.6c.2-.3.2-.6.2-.9 0-1.2-.8-1.9-2.5-1.9h-.6zm9-.1c1.2-1.2 2.7-1.8 4.5-1.8 1.8 0 3.3.6 4.5 1.8 1.2 1.2 1.8 2.7 1.8 4.4 0 1.8-.6 3.3-1.8 4.4-1.2 1.2-2.7 1.8-4.5 1.8-1.8 0-3.3-.6-4.5-1.8-1.2-1.2-1.8-2.7-1.8-4.4 0-1.8.6-3.2 1.8-4.4zm1.3 7.7c.8.8 1.9 1.3 3.2 1.3 1.3 0 2.3-.4 3.2-1.3.8-.8 1.2-1.9 1.2-3.3s-.4-2.4-1.2-3.3-1.9-1.3-3.2-1.3c-1.3 0-2.3.4-3.2 1.3-.8.8-1.2 1.9-1.2 3.3s.4 2.4 1.2 3.3zm12.8 2.7H183c-.1 0-.1-.1-.1-.1l2.4-12.5c0-.1.2-.1.2 0l4 8.8c0 .1.2.1.2 0l4-8.8c0-.1.2-.1.2 0l2.2 12.5c0 .1 0 .1-.1.1h-1.7c-.1 0-.1 0-.1-.1l-1.2-6.8c0-.1-.2-.1-.2 0l-3.3 7.3c0 .1-.2.1-.2 0l-3.2-7.3c0-.1-.2-.1-.2 0l-1.2 6.8c.1.1 0 .1 0 .1zm24.1-10.3h-2.5c-.1 0-.1 0-.1.1v10.1c0 .1 0 .1-.1.1h-1.6c-.1 0-.1 0-.1-.1v-10.1c0-.1 0-.1-.1-.1h-2.5c-.1 0-.1 0-.1-.1v-1.5c0-.1 0-.1.1-.1h7.1c.1 0 .1 0 .1.1v1.5c-.1.1-.2.1-.2.1zm3.5-1.6v4.5c0 .1 0 .1.1.1h4.9c.1 0 .1 0 .1-.1v-4.5c0-.1 0-.1.1-.1h1.6c.1 0 .1 0 .1.1v11.8c0 .1 0 .1-.1.1h-1.6c-.1 0-.1 0-.1-.1v-5.4c0-.1 0-.1-.1-.1h-4.9c-.1 0-.1 0-.1.1v5.4c0 .1 0 .1-.1.1h-1.6c-.1 0-.1 0-.1-.1v-11.8c0-.1 0-.1.1-.1h1.6c.1 0 .1 0 .1.1zm18.2 11.8l-1.2-2.8-.1-.1h-5s-.1 0-.1.1l-1.3 2.8-.1.1H221c-.1 0-.1-.1-.1-.1l5.8-12.4c0-.1.1-.1.2 0l5.5 12.4c0 .1 0 .1-.1.1l-1.8-.1c0 .1 0 .1 0 0zm-5.5-4.5h3.3c.1 0 .1-.1.1-.1l-1.6-3.7c0-.1-.1-.1-.2 0l-1.7 3.7s0 .1.1.1zm9.1-7.4h1.6c.1 0 .1 0 .1.1v11.8c0 .1 0 .1-.1.1h-1.6c-.1 0-.1 0-.1-.1l.1-11.9c-.1 0-.1 0 0 0zm4.7 0h1.6c.1 0 .1 0 .1.1v10.1c0 .1 0 .1.1.1h3.3c.1 0 .1 0 .1.1v1.5c0 .1 0 .1-.1.1h-5.2c-.1 0-.1 0-.1-.1v-11.8c.1-.1.2-.1.2-.1zm15.3 11.9l-1.2-2.8-.1-.1h-5s-.1 0-.1.1l-1.3 2.8-.1.1h-1.8c-.1 0-.1-.1-.1-.1l5.8-12.4c0-.1.1-.1.2 0l5.5 12.4c0 .1 0 .1-.1.1l-1.7-.1c0 .1 0 .1 0 0zm-5.5-4.5h3.3c.1 0 .1-.1.1-.1l-1.6-3.7c0-.1-.1-.1-.2 0l-1.7 3.7.1.1zm10.7 4.6h-1.6c-.1 0-.1 0-.1-.1v-12.5c0-.1.1-.1.2-.1l8.4 8.8c.1.1.2 0 .2-.1v-8c0-.1 0-.1.1-.1h1.6c.1 0 .1 0 .1.1v12.4c0 .1-.1.1-.2.1l-8.4-8.8c-.1-.1-.2 0-.2.1l-.1 8.2c.1 0 .1 0 0 0zm11.7-12h2.5c.9 0 1.8.1 2.5.2.7.2 1.4.5 2 .9.7.6 1.3 1.2 1.7 2.1.4.8.6 1.8.6 2.8 0 2.1-.8 3.7-2.4 4.8-.6.5-1.3.8-2 .9-.7.2-1.5.2-2.4.2H271v-11.9zm1.9 1.7v8.5h.8c1.4 0 2.4-.3 3.2-.8 1.1-.8 1.6-2 1.6-3.4 0-.7-.2-1.4-.5-2-.3-.6-.7-1.1-1.2-1.4-.8-.6-1.8-.8-3.2-.8h-.7z" fill="#5d5d5d"/><linearGradient id="SVGID_1_" gradientUnits="userSpaceOnUse" x1="27.337" y1="-16149.445" x2="299.32" y2="-15992.417" gradientTransform="matrix(1 0 0 -1 0 -15923.738)"><stop offset="0" stop-color="#edbba9"/><stop offset=".094" stop-color="#ddb6b1"/><stop offset=".325" stop-color="#b9abc1"/><stop offset=".355" stop-color="#beaec2"/><stop offset=".497" stop-color="#d4b9c8"/><stop offset=".647" stop-color="#e4c2cc"/><stop offset=".808" stop-color="#edc7cf"/><stop offset="1" stop-color="#f0c9d0"/></linearGradient><path d="M328 148.4c0-.3-.9-1.7-.6-2.4.4-8.2-1.4-10 .4-18.7.6-3.2-5-8.3-3.9-15.6.6-4.2-14.7 4.8-16 7.8 3.9 14 9.7 13.8 3.9 23.9-1.9 4.2-.7 4.9-.7 5.2-1 2.8-1 6.5-4.1 11.4-1.3 2.1-2.9 7.4-5.6 11.2-2.7 3.8-7.3 9.7-8.6 11.4-2.6 4.4-11.6 2.4-15.7 5.6-5 0-6.5-5.1-8.6-6.5-2.1-1.5-4.5-3.2-4.8-5.6-.6-7.9-2.5-6.6-3.4-10.2-1.9-10.4-2.9-18.9-2.9-25.5.3-3.6.2-9-.5-16.3-.6-7.3-1-12.6-1-16v-1c-1.3-4.7-1.6-12-1-21.9.3-3.4.4-5.9.2-7.5-.2-1.6-.4-5.5-.7-11.7-.3-6.2-.8-10.9-1.5-14.1v-1c0-4-1.2-9.4-3.6-16-1.3-3.7-6.1-11.3-14.3-22.8 0-.3-.2-.5-.5-.5C222.2 3 210.8-.6 200.2.7c-2.1.3-5.1.8-8.9 1.5-3.8.6-6.5 1.1-8.1 1.5-1.9 0-4.6.8-8 2.4-7.6 3.4-14.4 8.1-20.4 14.1-.4.4-4.8 5.6-6 15.1-.2 1.9-2.4 4.9-2.5 7-.1 4.1-2 12.7-2 17.1.1 14.4 1.3 27.4 3.5 34.3l-3-4.6c-4.2-6-8.7-10-13.4-11.9-1.6-1.1-7.6-3-18-5.6-.6-.3-1.8-.3-3.4 0-9.2 1.9-23.3-5-32.3.4-4.8.4-15 6.5-28 8.8-8.4 1.5-16.4 6.9-20.9 11.3-4.3 4.3-26.5 21.8-26.5 28 0 1.5 15.4-7.9 12.6-2-3.1 6.5-5.8 16-5.8 16 0 2.8.2 4.5.5 5.1 1.1 1.6 1.7 4.8 1.7 9.5v19.7c0 3.1-.4 5.3-1.2 6.6-.6 1.9-1 6.7-1 7.1 1.5 8.7 2.3 13.3 2.7 13.6 1.3 4.9 2.6 8.2 3.9 10l4.4 1.9c5.3.6 9.2 1 11.4 1 2.8 0 10.9-1.6 15.6.8 0 .3 1 1.1 2.9 2.4 5.3-7 10.1-10.9 14.3-11.9 1.8-3.7 2.5-8.2 2.2-13.4 0-.3-.2-1.9-.6-4.7-.4-2.8-1.3-4.8-.6-6.4 0-.6-.2-2.4-.5-5.3-.6-6-4.2-9.5-3.2-12.2 2.1-7 1.7-11.3 2-12.2 1.9-5.3 3.1-12.7 4.1-14.3.6-1 3.4-6.3 4.4-8.8 1.1-2.5 1.1-7.2 1.7-8.2 1.3-1.6-2-1.4 1.8-5.6 4.1-4.5 7.1-3.3 9.9-4.4 3.7-1.4 8.7-1.2 14.5.2 3.5 3.7 6.1 9.5 6.1 9.5-.3 6.3.3 13.6 1.9 21.9.6 5 .5 8.7-.5 10.9-.3 1-.5 3-.5 6.1.3 4.4.2 9.2 1.5 14.6.6 3.6.3 6.7-1 9.5.3.3.8 1.1 1.5 2.2.6 1.1 1.2 2.2 1.7 3.2s.9 2 1.2 3.2c0 .3.1 1.1.2 2.2.2 1.1.4 1.9.7 2.2.3.3 1.9 1.6 4.6 3.9-.3.6-.6 1.4-1 2.3-.3.9-.5 1.5-.5 1.8.3.7.6 1.5 1 2.7.3 1.1.6 2 1 2.7 2.9.3 4.4.6 4.4 1 2.8.6 4.5 1 5.3 1 .8 0 2.4-.3 4.9-1 2.4-.6 4.2-1 5.3-1 .6-1 1.4-1.6 2.2-1.9.8-.3 1.5-.5 2.2-.5h5.1c2.6 0 5.5-.2 8.8-.5.3-.3 1-.6 2.1-1 1.1-.3 1.7-.5 2.1-.5.3 0 1 .2 1.9.7 1 .5 1.8.4 2.4-.2.6-3.4 1.1-5.3 1.2-5.6.2-.3 1.5-1.8 3.9-4.4V183c.3-1.3.3-3.4 0-6.2-.3-2.8-.3-4.7 0-5.7v-20c-.6-1.6-1.1-5.4-1.5-11.4v-4.9c-.3-1.1-.7-2.6-1.1-4.4-.4-1.8-.6-3-.6-3.6-1-5.3-1.3-8.3-1-9 .3-.6.3-2.1 0-4.3-.3-2.2-.5-3.4-.5-3.8 0-8.9-.2-15.6-.5-19.9-.3-5.7-1-12-1.9-19 0-1.9-.4-5-1.2-9.1-.8-4.1 1.2-7.3 1.2-8 1.6-6.6.2-8.7 1.5-10.5 1.6-1.6 3.5-6.5 4.6-8.1 1.9-4.7 5.4-7.2 11.5-8.9 2.6-1.6 5.8-2 8.8-1.4 3.2 2.1 6.9 3.1 7.9 8.7 1.3 7.9 1.3 9.7.9 11.9 0 1.3.2 2.4.5 3.4 1.5 1.1 1.9 4.5 1.5 10.1-.5 5.6-.6 8.9-.2 9.8-1.1 2.1-1.7 6.5-1.7 13.1 0 2.6-1.8 10.3-2.7 23.9l-1.8 20.7c2.9 6 6.6-13.4 7.1-14.9s2.1-.2 2.4-.6c.3 7.8.1 2.3.1 2.7 0 1.9.2 5 .7 9.1.5 4.1.7 7.3.7 9.6-.3 5 1.1 14.2 4.4 27.5 1.8 7.3 5.5 16.1 11.2 26.5 1.6 2.9 2.4 4.5 2.4 4.9.3.3.2 2.5-.5 6.6 3.2 8.9 9.9 14.5 19.9 16.8 2.9.6 5 1.1 6.3 1.5 7.3 1.1 13.4 1.1 18.5 0 1.3-.3 7.5-2.4 18.5-6.3.6 0 1.6-.5 2.9-1.5.3-.3 1-.9 1.9-1.8 1-.9 1.9.8 2.7.5 2.6-1.9 4.5-1.2 7-4.4s4-3 5.1-5.1c1.1-2.1 3.4-3 5.3-7.3.3-1 3.4-5.1 4.5-7.5 1.1-2.3 5.6-7.7 6.5-9.4.8-1.8 2.7-7 4-8.4 6.3-8.2 2.3-10.8 3-16.5zm-92.6-86.8c-1.5 0-2.7-1.4-2.7-3.2s1.2-3.2 2.7-3.2c1.5 0 2.7 1.4 2.7 3.2s-1.2 3.2-2.7 3.2z" fill="url(#SVGID_1_)"/></svg>