<svg version="1.1" id="Слой_1" xmlns="http://www.w3.org/2000/svg" x="0" y="0" viewBox="0 0 280.2 277" xml:space="preserve"><path d="M13.9 246H11c-.2 0-.3-.1-.3-.3l4.8-30.3c0-.2.4-.3.5-.1l10.9 23.9c.1.2.4.2.5 0l11.1-23.9c.1-.2.4-.2.5.1l4.5 30.3c0 .2-.1.3-.3.3h-2.9c-.1 0-.2-.1-.3-.2l-2.7-19.6c0-.3-.4-.3-.5-.1l-9.5 20.7c-.1.2-.4.2-.5 0L17.4 226c-.1-.2-.4-.2-.5.1l-2.8 19.6c0 .2-.1.3-.2.3zm59.5-.2l-3.3-8.1c0-.1-.1-.2-.2-.2H57.5c-.1 0-.2.1-.2.2l-3.4 8.1c0 .1-.1.2-.2.2h-3.1c-.2 0-.3-.2-.2-.4l13.3-30.3c.1-.2.4-.2.5 0l13 30.3c.1.2-.1.4-.2.4h-3.1c-.3 0-.4-.1-.5-.2zM59 234.4h9.3c.2 0 .3-.2.2-.4l-4.6-11c-.1-.2-.4-.2-.5 0l-4.7 11c0 .2.1.4.3.4zm41.1-.5v-2.6c0-.1.1-.3.3-.3h12.2v.7c0 3.7-1 6.8-2.9 9.4-2.6 3.6-6.3 5.4-11.1 5.4-4.4 0-8.1-1.5-11-4.4-2.9-3-4.4-6.6-4.4-11 0-4.3 1.5-8 4.4-11 3-3 6.7-4.4 11.1-4.4 3.5 0 6.5 1 9.1 2.9 1.2 1 2.3 2.1 3.3 3.3.1.1.1.3 0 .4l-2.1 1.9c-.1.1-.3.1-.4 0-.8-1.1-1.7-2.1-2.6-2.8-2.1-1.7-4.5-2.5-7.2-2.5-3.5 0-6.5 1.2-8.8 3.5-2.3 2.4-3.4 5.3-3.4 8.8 0 2.6.6 4.8 1.9 6.7 1.3 1.9 2.8 3.3 4.6 4.2 1.8.9 3.7 1.3 5.6 1.3 2 0 3.8-.5 5.4-1.4 1.6-.9 2.9-2.1 3.7-3.6.7-1.2 1.1-2.5 1.2-4 0-.1-.1-.3-.3-.3h-8.3c-.2 0-.3-.1-.3-.2zm22.1-17.7h2.8c.1 0 .3.1.3.3v29.3c0 .1-.1.3-.3.3h-2.8c-.1 0-.3-.1-.3-.3v-29.3c0-.2.1-.3.3-.3zm36.8 2.6v3.4c0 .2-.3.3-.4.2-1.1-1-2.2-1.8-3.4-2.3-1.7-.8-3.4-1.2-5.1-1.2-3.4 0-6.3 1.2-8.6 3.6-2.3 2.4-3.4 5.3-3.4 8.8 0 3.8 1.2 6.7 3.7 8.9s5.2 3.3 8.3 3.3c1.9 0 3.8-.5 5.5-1.4 1.1-.5 2.1-1.2 3-2.1.2-.2.4 0 .4.2v3.4c0 .1 0 .2-.1.2-2.7 1.9-5.6 2.8-8.9 2.8-4.4 0-8.1-1.5-11-4.4-2.9-2.9-4.4-6.6-4.4-10.9 0-4.4 1.5-8.1 4.4-11.1 3-2.9 6.7-4.4 11.1-4.4 3.2 0 6.1 1 8.7 2.9.2-.1.2 0 .2.1zm37.5.5h-6.7c-.1 0-.3.1-.3.3v26.1c0 .1-.1.3-.3.3h-2.8c-.1 0-.3-.1-.3-.3v-26.1c0-.1-.1-.3-.3-.3h-6.7c-.1 0-.3-.1-.3-.3v-2.6c0-.1.1-.3.3-.3h17.3c.1 0 .3.1.3.3v2.6c0 .2-.1.3-.2.3zm11.4-2.9V228c0 .1.1.3.3.3H223c.1 0 .3-.1.3-.3v-11.6c0-.1.1-.3.3-.3h2.8c.1 0 .3.1.3.3v29.3c0 .1-.1.3-.3.3h-2.8c-.1 0-.3-.1-.3-.3v-14c0-.1-.1-.3-.3-.3h-14.8c-.1 0-.3.1-.3.3v14c0 .1-.1.3-.3.3h-2.8c-.1 0-.3-.1-.3-.3v-29.3c0-.1.1-.3.3-.3h2.8c.1.1.3.2.3.3zm49.4 29.4l-3.3-8.1c0-.1-.1-.2-.2-.2h-12.3c-.1 0-.2.1-.2.2l-3.4 8.1c0 .1-.1.2-.2.2h-3.1c-.2 0-.3-.2-.2-.4l13.3-30.3c.1-.2.4-.2.5 0l13 30.3c.1.2-.1.4-.2.4h-3.1c-.5 0-.6-.1-.6-.2zm-14.4-11.4h9.3c.2 0 .3-.2.2-.4l-4.6-11c-.1-.2-.4-.2-.5 0l-4.7 11c0 .2.1.4.3.4zm25.9-18.2h2.8c.1 0 .3.1.3.3v29.3c0 .1-.1.3-.3.3h-2.8c-.1 0-.3-.1-.3-.3v-29.3c.1-.2.2-.3.3-.3zM53.2 267.1v1.9c-.8-.8-1.8-1.1-2.8-1.1-1.1 0-2 .4-2.7 1.1-.7.7-1 1.7-1 2.8 0 1.1.4 2 1.1 2.8.7.7 1.6 1.1 2.7 1.1 1 0 1.9-.4 2.8-1.2v1.9c-.9.5-1.8.7-2.8.7-1.4 0-2.6-.5-3.6-1.4-1.1-1-1.7-2.3-1.7-3.9s.6-3 1.7-4c.9-.9 2.2-1.3 3.7-1.3.9-.2 1.8.1 2.6.6zm3 .8c1-1 2.3-1.5 3.8-1.5s2.8.5 3.8 1.5 1.5 2.3 1.5 3.8-.5 2.8-1.5 3.8-2.3 1.5-3.8 1.5-2.8-.5-3.8-1.5-1.5-2.3-1.5-3.8.5-2.8 1.5-3.8zm1.1 6.6c.7.7 1.6 1.1 2.7 1.1s2-.4 2.7-1.1c.7-.7 1.1-1.7 1.1-2.8 0-1.1-.4-2.1-1.1-2.8s-1.6-1.1-2.7-1.1-2 .4-2.7 1.1c-.7.7-1.1 1.7-1.1 2.8 0 1.1.4 2.1 1.1 2.8zm15.8-6.4l-1.3.7c-.1-.2-.3-.5-.5-.6-.3-.2-.7-.4-1.1-.4-.5 0-.8.1-1.1.4-.3.2-.4.5-.4.9 0 .5.4 1 1.1 1.3l1 .4c1.6.7 2.4 1.7 2.4 3 0 1-.3 1.8-.9 2.4-.6.6-1.4.9-2.4.9s-1.8-.3-2.4-1c-.5-.5-.8-1.2-.9-1.9 0 0 0-.1.1-.1l1.4-.3c.1 0 .1 0 .1.1 0 .5.2.9.4 1.2.3.4.8.6 1.3.6s.9-.2 1.2-.5c.3-.3.5-.7.5-1.3 0-.5-.1-.8-.4-1.1-.3-.3-.6-.5-1.1-.7l-1-.4c-1.4-.6-2.1-1.5-2.1-2.6 0-.7.3-1.4.8-1.9s1.3-.8 2.2-.8c.8 0 1.5.2 2.1.7.5.2.8.6 1 1zm3.5 8.7h-1.4c-.1 0-.1 0-.1-.1l2.1-10.7c0-.1.1-.1.2 0l3.4 7.6c0 .1.1.1.2 0l3.4-7.6c0-.1.1-.1.2 0l1.9 10.7c0 .1 0 .1-.1.1H85s-.1 0-.1-.1l-1-5.9c0-.1-.1-.1-.2 0l-2.8 6.3c0 .1-.1.1-.2 0l-2.8-6.3c0-.1-.1-.1-.2 0l-1.1 6zm17.6-10.2v1.3s0 .1-.1.1h-3.9s-.1 0-.1.1v2.3s0 .1.1.1H94s.1 0 .1.1v1.3s0 .1-.1.1h-3.8s-.1 0-.1.1v3.2s0 .1.1.1h3.9s.1 0 .1.1v1.3s0 .1-.1.1h-5.5s-.1 0-.1-.1v-10.1s0-.1.1-.1h5.6c0-.1 0 0 0 0zm7.2 1.4h-2.2s-.1 0-.1.1v8.7s0 .1-.1.1h-1.4s-.1 0-.1-.1v-8.7s0-.1-.1-.1h-2.2s-.1 0-.1-.1v-1.3s0-.1.1-.1h6.1s.1 0 .1.1v1.4c.1 0 0 0 0 0zm1.5-1.5h1.4s.1 0 .1.1v10.1s0 .1-.1.1h-1.4s-.1 0-.1-.1l.1-10.2c0 .1 0 0 0 0zm11.6.6v1.9c-.8-.8-1.8-1.1-2.8-1.1-1.1 0-2 .4-2.7 1.1-.7.7-1 1.7-1 2.8 0 1.1.4 2 1.1 2.8.7.7 1.6 1.1 2.7 1.1 1 0 1.9-.4 2.8-1.2v1.9c-.9.5-1.8.7-2.8.7-1.4 0-2.6-.5-3.6-1.4-1.1-1-1.7-2.3-1.7-3.9s.6-3 1.7-4c.9-.9 2.2-1.3 3.7-1.3.9-.2 1.8.1 2.6.6zm7.7 1l-1.3.7c-.1-.2-.3-.5-.5-.6-.3-.2-.7-.4-1.1-.4-.5 0-.8.1-1.1.4-.3.2-.4.5-.4.9 0 .5.4 1 1.1 1.3l1 .4c1.6.7 2.4 1.7 2.4 3 0 1-.3 1.8-.9 2.4-.6.6-1.4.9-2.4.9s-1.8-.3-2.4-1c-.5-.5-.8-1.2-.9-1.9 0 0 0-.1.1-.1l1.4-.3c.1 0 .1 0 .1.1 0 .5.2.9.4 1.2.3.4.8.6 1.3.6s.9-.2 1.2-.5c.3-.3.5-.7.5-1.3 0-.5-.1-.8-.4-1.1-.3-.3-.6-.5-1.1-.7l-1-.4c-1.4-.6-2.1-1.5-2.1-2.6 0-.7.3-1.4.8-1.9s1.3-.8 2.2-.8c.8 0 1.5.2 2.1.7.5.2.8.6 1 1zm11-1.5v1.3s0 .1-.1.1h-3.4s-.1 0-.1.1v2.3s0 .1.1.1h3.3s.1 0 .1.1v1.3s0 .1-.1.1h-3.3s-.1 0-.1.1v4.7s0 .1-.1.1h-1.4s-.1 0-.1-.1v-10.1s0-.1.1-.1h5.1c0-.1 0 0 0 0zm1.8 0s.1-.1 0 0l1.8-.1c1.2 0 2.1.2 2.7.6.8.5 1.2 1.4 1.2 2.4 0 .7-.2 1.4-.6 1.9-.4.5-.9.8-1.5 1-.1 0-.1.1 0 .1l3 4.2c0 .1 0 .1-.1.1h-1.8l-2.9-4.2h-.3v4.1s0 .1-.1.1H135s-.1 0-.1-.1v-10.1zm1.6 1.4v3.3h.9c.1 0 .3 0 .5-.1s.4-.1.6-.3c.2-.1.3-.3.4-.5.1-.2.2-.5.2-.8 0-1.1-.7-1.6-2.1-1.6h-.5zm7.7-.1c1-1 2.3-1.5 3.8-1.5s2.8.5 3.8 1.5 1.5 2.3 1.5 3.8-.5 2.8-1.5 3.8-2.3 1.5-3.8 1.5-2.8-.5-3.8-1.5-1.5-2.3-1.5-3.8.5-2.8 1.5-3.8zm1.1 6.6c.7.7 1.6 1.1 2.7 1.1s2-.4 2.7-1.1c.7-.7 1.1-1.7 1.1-2.8 0-1.1-.4-2.1-1.1-2.8s-1.6-1.1-2.7-1.1-2 .4-2.7 1.1c-.7.7-1.1 1.7-1.1 2.8 0 1.1.4 2.1 1.1 2.8zm11 2.3H155c-.1 0-.1-.1-.1-.1L157 266c0-.1.1-.1.2 0l3.4 7.6c0 .1.1.1.2 0l3.4-7.6c0-.1.2-.1.2 0l1.9 10.7c0 .1 0 .1-.1.1h-1.4s-.1 0-.1-.1l-1-5.9c0-.1-.1-.1-.2 0l-2.8 6.2c0 .1-.1.1-.2 0l-2.8-6.3c0-.1-.2-.1-.2 0l-1.1 6.1c.1 0 0 0 0 0zm20.7-8.8h-2.2s-.1 0-.1.1v8.6s0 .1-.1.1h-1.4s-.1 0-.1-.1v-8.6s0-.1-.1-.1h-2.2s-.1 0-.1-.1v-1.3s0-.1.1-.1h6.1s.1 0 .1.1v1.4c.1 0 0 0 0 0zm3-1.4v3.8s0 .1.1.1h4.2s.1 0 .1-.1v-3.8s0-.1.1-.1h1.4s.1 0 .1.1v10.1s0 .1-.1.1h-1.4s-.1 0-.1-.1v-4.6s0-.1-.1-.1h-4.2s-.1 0-.1.1v4.6s0 .1-.1.1h-1.4s-.1 0-.1-.1v-10.1s0-.1.1-.1l1.5.1c0-.1 0 0 0 0zm15.6 10.2l-1-2.4s0-.1-.1-.1h-4.4l-1.1 2.4h-1.6c-.1 0-.1-.1-.1-.1l5-10.6c0-.1.1-.1.2 0l4.8 10.6c0 .1 0 .1-.1.1l-1.6.1c.1 0 0 0 0 0zm-4.7-3.9h2.9c.1 0 .1-.1.1-.1l-1.4-3.2c0-.1-.1-.1-.2 0l-1.5 3.2.1.1zm7.8-6.4h1.4s.1 0 .1.1v10.1s0 .1-.1.1h-1.4s-.1 0-.1-.1l.1-10.2c-.1.1 0 0 0 0zm4.1 0h1.4s.1 0 .1.1v8.7s0 .1.1.1h2.9s.1 0 .1.1v1.3s0 .1-.1.1H203s-.1 0-.1-.1v-10.3c-.1.1-.1 0 0 0zm13.1 10.3l-1-2.4s0-.1-.1-.1h-4.3s-.1 0-.1.1l-1.1 2.4s0 .1-.1.1h-1.5c-.1 0-.1-.1-.1-.1l5-10.6c0-.1.1-.1.2 0l4.8 10.6c0 .1 0 .1-.1.1l-1.6-.1zm-4.7-3.9h2.9c.1 0 .1-.1.1-.1l-1.4-3.2c0-.1-.1-.1-.2 0l-1.5 3.2.1.1zm9.2 3.9h-1.4s-.1 0-.1-.1V266c0-.1.1-.1.1-.1l7.2 7.5c.1.1.1 0 .1-.1v-6.9s0-.1.1-.1h1.4s.1 0 .1.1v10.7c0 .1-.1.1-.1.1l-7.2-7.5c-.1-.1-.1 0-.1.1l-.1 7c.1 0 .1 0 0 0zm10-10.3h2.2c.8 0 1.5.1 2.1.2.6.1 1.2.4 1.7.8.6.5 1.1 1.1 1.5 1.8.3.7.5 1.5.5 2.4 0 1.8-.7 3.2-2.1 4.2-.6.4-1.1.7-1.7.8-.6.1-1.3.2-2.1.2h-2.1v-10.4zm1.6 1.5v7.3h.7c1.2 0 2.1-.2 2.7-.7.9-.7 1.4-1.7 1.4-2.9 0-.6-.1-1.2-.4-1.7-.3-.5-.6-.9-1-1.2-.7-.5-1.6-.7-2.8-.7h-.6zm47.5-140.8c0-.3-.8-1.5-.5-2 .3-7-1.2-8.5.3-16.1.6-2.8-4.3-7.1-3.4-13.4.6-3.6-12.7 4.1-13.8 6.7 3.4 12 8.3 11.8 3.4 20.5-1.7 3.6-.6 4.2-.6 4.5-.8 2.4-.9 5.6-3.5 9.8-1.1 1.8-2.5 6.3-4.8 9.6s-6.2 8.4-7.4 9.8c-2.2 3.8-10 2-13.4 4.8-4.3 0-5.6-4.4-7.4-5.6-1.8-1.3-3.9-2.7-4.2-4.8-.6-6.8-2.2-5.7-2.9-8.8-1.7-8.9-2.5-16.2-2.5-21.9.3-3.1.1-7.7-.4-14-.6-6.3-.8-10.9-.8-13.8v-.8c-1.1-4-1.4-10.3-.8-18.8.3-2.9.3-5.1.2-6.5-.1-1.4-.4-4.7-.6-10-.3-5.3-.7-9.3-1.3-12.1v-.8c0-3.5-1-8.1-3.1-13.8-1.1-3.2-5.2-9.7-12.3-19.6 0-.3-.1-.4-.4-.4C188.8 2.2 179-.9 170 .2c-1.8.3-4.4.7-7.6 1.3-3.3.6-5.6 1-7 1.3-1.7 0-4 .7-6.9 2.1-6.5 2.9-12.4 7-17.5 12.1-.3.3-4.1 4.8-5.1 13-.2 1.6-2.1 4.2-2.1 6-.1 3.5-1.7 10.9-1.7 14.7.1 12.4 1.1 23.5 3 29.5l-2.6-3.9c-3.6-5.1-7.4-8.6-11.5-10.2-1.4-1-6.5-2.6-15.4-4.8-.6-.3-1.5-.3-2.9 0-7.9 1.7-20-4.3-27.8.3-4.3.2-13 5.4-24.2 7.4-7.2 1.3-14.1 5.9-17.9 9.7C19.1 82.4 0 97.5 0 102.9c0 1.3 13.2-6.8 10.8-1.7-2.7 5.6-5 13.7-5 13.7 0 2.4.1 3.8.4 4.4 1 1.4 1.5 4.1 1.5 8.1v16.9c0 2.6-.4 4.5-1 5.6-.6 1.7-.8 5.8-.8 6.1 1.3 7.5 2 11.4 2.3 11.7 1.1 4.2 2.2 7 3.3 8.6l3.8 1.7c4.6.6 7.9.8 9.8.8 2.4 0 9.4-1.4 13.4.7 0 .3.8 1 2.5 2.1 4.6-6 8.7-9.4 12.3-10.2 1.5-3.2 2.2-7 1.9-11.5 0-.3-.2-1.6-.5-4.1-.3-2.4-1.1-4.1-.5-5.5 0-.6-.1-2.1-.4-4.6-.6-5.1-3.6-8.1-2.8-10.5 1.8-6 1.5-9.7 1.8-10.5 1.7-4.6 2.7-10.9 3.5-12.3.6-.8 2.9-5.4 3.8-7.6.9-2.2.9-6.2 1.5-7 1.1-1.4-1.7-1.2 1.6-4.8 3.5-3.9 6.1-2.9 8.5-3.8 3.2-1.2 7.5-1 12.4.2 3 3.2 5.3 8.1 5.3 8.1-.3 5.4.3 11.7 1.7 18.8.6 4.3.4 7.4-.4 9.4-.3.8-.4 2.6-.4 5.2.3 3.8.1 7.9 1.3 12.5.6 3.1.3 5.8-.8 8.1.3.3.7.9 1.3 1.9.6 1 1 1.9 1.5 2.7.4.8.8 1.7 1 2.7 0 .3.1.9.2 1.9.1 1 .3 1.6.6 1.9.3.3 1.6 1.4 4 3.3-.3.6-.6 1.2-.8 2-.3.8-.4 1.3-.4 1.6.3.6.6 1.3.8 2.3.3 1 .6 1.7.8 2.3 2.5.3 3.8.6 3.8.8 2.4.6 3.9.8 4.6.8.7 0 2.1-.3 4.2-.8 2.1-.6 3.6-.8 4.6-.8.6-.8 1.2-1.4 1.9-1.7.7-.3 1.3-.4 1.9-.4h4.4c2.2 0 4.7-.1 7.5-.4.3-.3.9-.6 1.8-.8.9-.3 1.5-.4 1.8-.4.3 0 .8.2 1.7.6.8.4 1.5.4 2.1-.2.6-2.9.9-4.5 1-4.8.1-.3 1.3-1.5 3.3-3.8v-5.6c.3-1.1.3-2.9 0-5.3s-.3-4.1 0-4.9v-17.1c-.6-1.4-1-4.7-1.3-9.8v-4.2c-.3-1-.6-2.2-.9-3.8-.3-1.5-.5-2.6-.5-3.1-.8-4.6-1.1-7.2-.8-7.7.3-.6.3-1.8 0-3.7-.3-1.9-.4-3-.4-3.2 0-7.7-.1-13.4-.4-17.1-.3-4.9-.8-10.3-1.7-16.3 0-1.7-.3-4.3-1-7.8-.7-3.6 1.1-6.3 1.1-6.8 1.4-5.7.1-7.5 1.3-9 1.4-1.4 3-5.6 3.9-7 1.7-4 4.7-6.1 9.9-7.6 2.3-1.4 4.9-1.7 7.6-1.2 2.8 1.8 5.9 2.6 6.8 7.5 1.1 6.8 1.1 8.3.8 10.3 0 1.1.1 2.1.4 2.9 1.3 1 1.7 3.9 1.3 8.7-.4 4.8-.5 7.6-.2 8.5-1 1.8-1.5 5.6-1.5 11.3 0 2.2-1.6 8.9-2.3 20.5l-1.5 17.8c2.5 5.2 5.7-11.5 6.1-12.8.4-1.3 1.8-.2 2.1-.5.3 6.7.1 2 .1 2.3 0 1.7.2 4.3.6 7.8.4 3.6.6 6.3.6 8.2-.3 4.3 1 12.2 3.8 23.6 1.5 6.3 4.7 13.8 9.6 22.7 1.4 2.5 2.1 3.9 2.1 4.2.3.3.1 2.2-.4 5.6 2.8 7.7 8.5 12.5 17.1 14.4 2.5.6 4.3 1 5.4 1.3 6.3 1 11.5 1 15.9 0 1.1-.3 6.4-2.1 15.9-5.4.6 0 1.4-.4 2.5-1.3.3-.3.8-.8 1.7-1.6.8-.8 1.6.7 2.3.4 2.2-1.7 3.9-1.1 6-3.8 2.2-2.7 3.4-2.6 4.4-4.4 1-1.8 2.9-2.5 4.6-6.3.3-.8 2.9-4.4 3.8-6.4.9-2 4.9-6.6 5.5-8.1.7-1.5 2.3-6 3.4-7.3 4.3-6.8.9-9 1.5-13.9zm-79.5-74.5c-1.3 0-2.4-1.2-2.4-2.7s1.1-2.7 2.4-2.7c1.3 0 2.4 1.2 2.4 2.7s-1.1 2.7-2.4 2.7z" fill="#9d9d9d"/></svg>